<svg width="420" height="420" xmlns="http://www.w3.org/2000/svg" xmlns:xlink="http://www.w3.org/1999/xlink" xml:space="preserve" overflow="hidden"><g transform="translate(-117 7)"><path d="M414.5 290.5 414.675 290.5M421.5 238 432 238C448.308 238 456.462 238 462.895 240.663 471.469 244.216 478.284 251.031 481.836 259.605 484.5 266.038 484.5 274.192 484.5 290.5 484.5 306.808 484.5 314.962 481.836 321.395 478.284 329.969 471.469 336.784 462.895 340.336 456.462 343 448.308 343 432 343L222 343C205.692 343 197.538 343 191.106 340.336 182.53 336.784 175.717 329.969 172.164 321.395 169.5 314.962 169.5 306.808 169.5 290.5 169.5 274.192 169.5 266.038 172.164 259.605 175.717 251.031 182.53 244.216 191.106 240.663 197.538 238 205.692 238 222 238L232.5 238M327 255.5 327 63M327 255.5 274.5 203M327 255.5 379.5 203" stroke="#70AD47" stroke-width="35" stroke-linecap="round" stroke-linejoin="round" fill="none"/></g></svg>