<svg width="615" height="604" xmlns="http://www.w3.org/2000/svg" xmlns:xlink="http://www.w3.org/1999/xlink" overflow="hidden"><defs><clipPath id="clip0"><rect x="-586" y="230" width="615" height="604"/></clipPath></defs><g clip-path="url(#clip0)" transform="translate(586 -230)"><path d="M659.928 359.961C659.928 525.627 525.627 659.928 359.961 659.928 194.293 659.928 59.9934 525.627 59.9934 359.961 59.9934 194.293 194.293 59.9934 359.961 59.9934 525.627 59.9934 659.928 194.293 659.928 359.961ZM509.944 479.948 509.944 419.954 479.948 419.954 479.948 479.948 239.974 479.948 239.974 419.954 209.977 419.954 209.977 479.948C209.977 496.515 223.407 509.944 239.974 509.944L479.948 509.944C496.515 509.944 509.944 496.515 509.944 479.948ZM424.349 319.357 374.959 368.747 374.959 209.977 344.962 209.977 344.962 368.747 295.575 319.357 274.364 340.571 359.961 426.166 445.559 340.571 424.349 319.357Z" fill="#FAA21B" fill-rule="evenodd" transform="matrix(1 0 0 1.00112 -638.461 171.635)"/></g></svg>