<svg width="276" height="275" xmlns="http://www.w3.org/2000/svg" xmlns:xlink="http://www.w3.org/1999/xlink" xml:space="preserve" overflow="hidden"><g transform="translate(-504 -68)"><path d="M22.9167 137.5C22.9167 83.4848 22.9167 56.4773 39.697 39.697 56.4773 22.9167 83.4848 22.9167 137.5 22.9167 191.515 22.9167 218.523 22.9167 235.303 39.697 252.083 56.4773 252.083 83.4848 252.083 137.5 252.083 191.515 252.083 218.523 235.303 235.303 218.523 252.083 191.515 252.083 137.5 252.083 83.4848 252.083 56.4773 252.083 39.697 235.303 22.9167 218.523 22.9167 191.515 22.9167 137.5ZM137.5 71.6146C142.246 71.6146 146.094 75.4622 146.094 80.2083L146.094 139.669 165.799 119.965C169.155 116.609 174.595 116.609 177.951 119.965 181.307 123.321 181.307 128.762 177.951 132.118L143.576 166.493C141.965 168.105 139.779 169.01 137.5 169.01 135.221 169.01 133.035 168.105 131.424 166.493L97.0483 132.118C93.6923 128.762 93.6923 123.321 97.0483 119.965 100.404 116.609 105.846 116.609 109.202 119.965L128.906 139.669 128.906 80.2083C128.906 75.4622 132.754 71.6146 137.5 71.6146ZM91.6667 186.198C86.9205 186.198 83.0729 190.046 83.0729 194.792 83.0729 199.538 86.9205 203.385 91.6667 203.385L183.333 203.385C188.079 203.385 191.927 199.538 191.927 194.792 191.927 190.046 188.079 186.198 183.333 186.198L91.6667 186.198Z" fill="#70AD47" fill-rule="evenodd" transform="matrix(1.00364 0 0 1 504 68)"/></g></svg>