<svg width="720" height="720" xmlns="http://www.w3.org/2000/svg" xmlns:xlink="http://www.w3.org/1999/xlink" xml:space="preserve" overflow="hidden"><g transform="translate(-656 27)"><path d="M1016-27C1214.83-27 1376 138.25 1376 342 1376 505.062 1272.97 643.312 1130.01 692.281 1111.76 695.875 1105.28 684.344 1105.28 674.656 1105.28 662.406 1105.71 622.781 1105.71 573.125 1105.71 538.938 1094.19 516.594 1081.27 505.062 1161.44 495.719 1245.68 464.75 1245.68 322.938 1245.68 282.594 1231.71 249.5 1208.6 223.938 1212.34 214.562 1224.69 176.75 1205.07 126 1205.07 126 1174.9 116.281 1106.18 163.781 1077.42 155.875 1046.6 151.562 1016 151.562 985.4 151.562 954.62 155.875 925.892 163.781 857.096 116.281 826.856 126 826.856 126 807.308 176.75 819.656 214.562 823.364 223.938 800.36 249.5 786.284 282.594 786.284 322.938 786.284 464.406 870.344 496.062 950.3 505.438 940.004 514.438 930.68 530.656 927.44 554.75 906.92 564.125 854.792 580.312 822.68 523.781 822.68 523.781 803.636 488.5 767.492 486 767.492 486 732.392 485.281 765.044 508.312 765.044 508.312 788.624 519.844 805.004 562.312 805.004 562.312 826.136 628.219 926.288 605.875 926.468 636.844 926.792 666 926.792 674.656 926.792 684.344 920.168 695.875 902.204 692.281 759.14 643.688 656 505.062 656 342 656 138.25 817.208-27 1016-27" fill="#70AD47" fill-rule="evenodd"/></g></svg>