<svg width="720" height="720" xmlns="http://www.w3.org/2000/svg" xmlns:xlink="http://www.w3.org/1999/xlink" overflow="hidden"><defs><clipPath id="clip0"><rect x="-310" y="299" width="720" height="720"/></clipPath></defs><g clip-path="url(#clip0)" transform="translate(310 -299)"><path d="M50 299C248.828 299 410 464.25 410 668 410 831.062 306.968 969.312 164.012 1018.28 145.76 1021.88 139.28 1010.34 139.28 1000.66 139.28 988.406 139.712 948.781 139.712 899.125 139.712 864.938 128.192 842.594 115.268 831.062 195.44 821.719 279.68 790.75 279.68 648.938 279.68 608.594 265.712 575.5 242.6 549.938 246.344 540.562 258.692 502.75 239.072 452 239.072 452 208.904 442.281 140.18 489.781 111.416 481.875 80.5999 477.562 50 477.562 19.4001 477.562-11.3801 481.875-40.1079 489.781-108.904 442.281-139.144 452-139.144 452-158.692 502.75-146.344 540.562-142.636 549.938-165.64 575.5-179.716 608.594-179.716 648.938-179.716 790.406-95.656 822.062-15.7 831.438-25.9961 840.438-35.3201 856.656-38.5601 880.75-59.0801 890.125-111.208 906.312-143.32 849.781-143.32 849.781-162.364 814.5-198.508 812-198.508 812-233.608 811.281-200.956 834.312-200.956 834.312-177.376 845.844-160.996 888.312-160.996 888.312-139.864 954.219-39.7119 931.875-39.532 962.844-39.208 992-39.208 1000.66-39.208 1010.34-45.832 1021.88-63.7961 1018.28-206.86 969.688-310 831.062-310 668-310 464.25-148.792 299 50 299" fill="#FAA21B" fill-rule="evenodd"/></g></svg>