<svg width="720" height="720" xmlns="http://www.w3.org/2000/svg" xmlns:xlink="http://www.w3.org/1999/xlink" xml:space="preserve" overflow="hidden"><g transform="translate(-147 233)"><path d="M169.59 252.617 291.945 252.617 291.945 235.067 169.59 235.067ZM169.59 219.115 291.945 219.115 291.945 201.588 169.59 201.588ZM204.555 185.612 257.003 185.612 257.003 168.063 204.555 168.063ZM204.555 152.11 257.003 152.11 257.003 134.582 204.555 134.582ZM204.555 118.652 257.003 118.652 257.003 101.103 204.555 101.103ZM204.555 85.1725 257.003 85.1725 257.003 67.6225 204.555 67.6225ZM169.59 51.67 291.945 51.67 291.945 34.12 169.59 34.12ZM169.59 18.19 291.945 18.19 291.945 0.639999 169.59 0.639999ZM309.405 219.137 495.93 219.137C498.878 214.098 501.307 208.247 502.86 202.06L502.95 201.588 309.427 201.588ZM481.305 134.628 344.37 134.628 344.37 152.177 495.885 152.177C491.925 145.36 487.065 139.578 481.372 134.717L481.283 134.65ZM344.37 101.125 344.37 118.675 481.305 118.675C487.065 113.725 491.925 107.943 495.727 101.44L495.908 101.125ZM495.93 34.165 309.427 34.165 309.427 51.715 502.995 51.715C501.352 45.0775 498.922 39.2275 495.795 33.85L495.975 34.165ZM438.105 0.662506 309.405 0.662506 309.405 18.2125 483.172 18.2125C471.383 7.345 455.587 0.662506 438.217 0.662506 438.195 0.662506 438.15 0.662506 438.128 0.662506L438.128 0.662506ZM344.393 85.1725 396.84 85.1725 396.84 67.6225 344.393 67.6225ZM446.092 85.1725 502.545 85.1725C504.007 79.9075 504.862 73.8775 504.885 67.645L504.885 67.645 446.092 67.645ZM344.393 185.612 396.84 185.612 396.84 168.063 344.393 168.063ZM446.07 168.085 446.07 185.635 504.885 185.635C504.862 179.38 504.03 173.35 502.432 167.613L502.545 168.085ZM309.427 252.438 438.15 252.617C438.195 252.617 438.24 252.617 438.307 252.617 455.655 252.617 471.45 245.958 483.24 235.023L483.195 235.067 309.427 235.067ZM659.01 252.595 665.107 235.045 652.958 235.045ZM647.355 219.092 670.688 219.092 676.807 201.565 641.213 201.565ZM635.655 185.59 682.388 185.59 688.508 168.063 629.512 168.063ZM623.932 152.133 694.11 152.133 700.23 134.582 617.79 134.582ZM554.16 85.1275 648.615 85.1275 642.54 67.6 554.16 67.6ZM681.083 51.67 798.893 51.67 798.893 34.12 687.157 34.12ZM698.768 0.639999 692.693 18.19 798.87 18.19 798.87 0.639999ZM519.195 252.595 606.585 252.595 606.585 235.045 519.195 235.045ZM519.195 219.092 606.585 219.092 606.585 201.565 519.195 201.565ZM554.16 185.59 606.608 185.59 606.608 168.085 554.16 168.085ZM554.16 152.133 606.608 152.133 606.608 134.582 554.16 134.582ZM763.905 67.6225 675.57 67.6225 669.473 85.1725 763.927 85.1725ZM711.503 118.652 763.905 118.652 763.905 101.103 663.96 101.103 659.032 115.277 654.105 101.103 554.16 101.103 554.16 118.652 606.608 118.652 606.608 102.52 612.233 118.652 705.855 118.652 711.48 102.52ZM711.503 152.133 763.905 152.133 763.905 134.582 711.458 134.582ZM711.503 185.612 763.905 185.612 763.905 168.063 711.458 168.063ZM711.503 219.07 798.87 219.07 798.87 201.565 711.48 201.565ZM711.503 252.595 798.87 252.595 798.87 235.045 711.48 235.045ZM636.983 51.6475 630.907 34.12 519.195 34.12 519.195 51.67ZM625.372 18.19 619.297 0.639999 519.195 0.639999 519.195 18.19ZM817.703 239.545C817.905 232.3 823.823 226.495 831.112 226.495 838.515 226.495 844.522 232.502 844.522 239.905 844.522 247.307 838.515 253.315 831.112 253.315 827.333 253.315 823.935 251.763 821.482 249.243L821.482 249.243C819.142 246.835 817.703 243.528 817.703 239.905 817.703 239.77 817.703 239.658 817.703 239.522L817.703 239.545ZM841.26 240.4 841.26 238.667C841.26 233.02 836.693 228.453 831.045 228.453 825.397 228.453 820.83 233.02 820.83 238.667L820.83 238.667 820.83 240.4C820.83 246.048 825.397 250.615 831.045 250.615 836.693 250.615 841.26 246.048 841.26 240.4L841.26 240.4ZM829.042 246.632 825.645 246.632 825.645 232.637 831.968 232.637C832.125 232.615 832.305 232.615 832.485 232.615 834.825 232.615 836.715 234.505 836.715 236.845 836.715 236.913 836.715 237.003 836.715 237.07L836.715 237.07C836.737 237.182 836.737 237.318 836.737 237.475 836.737 239.185 835.702 240.648 834.217 241.277L834.195 241.277 837.323 246.61 833.587 246.61 831 241.84 829.042 241.84ZM831.585 239.275C832.643 239.275 833.272 238.802 833.272 237.79L833.272 236.777C833.272 235.787 832.665 235.315 831.585 235.315L829.065 235.315 829.065 239.253Z" fill="#70AD47"/></g></svg>