<svg width="720" height="720" xmlns="http://www.w3.org/2000/svg" xmlns:xlink="http://www.w3.org/1999/xlink" overflow="hidden"><defs><clipPath id="clip0"><rect x="-740" y="588" width="720" height="720"/></clipPath></defs><g clip-path="url(#clip0)" transform="translate(740 -588)"><path d="M-600 1071.13-600 1091.13-740 1091.13-740 1071.13-600 1071.13ZM-381.212 1071.13C-395.255 1084.04-413.65 1091.18-432.727 1091.13L-432.727 1091.13-580 1090.93-580 1071.13ZM-173.048 1071.13-180.031 1091.13-186.953 1071.13-173.048 1071.13ZM-239.999 1071.13-239.999 1091.13-339.999 1091.13-339.999 1071.13-239.999 1071.13ZM-20 1071.13-20 1091.13-120 1091.13-120 1071.13-20 1071.13ZM-358.559 1032.95C-360.276 1039.97-362.984 1046.7-366.605 1052.95L-366.605 1052.95-580 1052.95-580 1032.95ZM-159.643 1032.95-166.663 1052.95-193.336 1052.95-200.356 1032.95-159.643 1032.95ZM-239.999 1032.95-239.999 1052.95-339.999 1052.95-339.999 1032.95-239.999 1032.95ZM-20 1032.95-20 1052.95-120 1052.95-120 1032.95-20 1032.95ZM-600 1032.95-600 1052.95-740 1052.95-740 1032.95-600 1032.95ZM-640 994.768-640 1014.77-700 1014.77-700 994.768-640 994.768ZM-480 994.768-480 1014.77-540 1014.77-540 994.768-480 994.768ZM-359.038 994.768C-357.267 1001.29-356.367 1008.01-356.364 1014.77L-356.364 1014.77-423.636 1014.77-423.636 994.768ZM-146.239 994.768-153.26 1014.77-206.739 1014.77-213.762 994.768-146.239 994.768ZM-239.999 994.768-239.999 1014.77-300 1014.77-300 994.768-239.999 994.768ZM-59.9994 994.768-59.9994 1014.77-120 1014.77-120 994.768-59.9994 994.768ZM-640 956.587-640 976.586-700 976.586-700 956.587-640 956.587ZM-239.999 956.587-239.999 976.586-300 976.586-300 956.587-239.999 956.587ZM-59.9994 956.587-59.9994 976.586-120 976.586-120 956.587-59.9994 956.587ZM-383.31 956.585C-376.65 962.252-371.007 969.016-366.628 976.585L-366.628 976.585-540 976.585-540 956.585ZM-132.835 956.585-139.855 976.586-220.145 976.586-227.164 956.585-132.835 956.585ZM-185.622 918.405-180 934.572-174.38 918.405-60.0008 918.405-60.0008 938.406-119.998 938.406-119.998 920.028-126.452 938.406-233.547 938.406-240.001 920.025-240.001 938.406-299.998 938.406-299.998 918.405-185.622 918.405ZM-540 918.404-366.627 918.406C-371.006 925.975-376.649 932.739-383.31 938.406L-383.31 938.406-540 938.406-540 918.404ZM-640 918.404-640 938.405-700 938.405-700 918.404-640 918.404ZM-640 880.223-640 900.223-700 900.223-700 880.223-640 880.223ZM-480 880.223-480 900.223-540 900.223-540 880.223-480 880.223ZM-356.364 880.223C-356.367 886.979-357.267 893.704-359.038 900.223L-359.038 900.223-423.636 900.223-423.636 880.223ZM-198.9 880.223-191.945 900.223-299.998 900.223-299.998 880.223-198.9 880.223ZM-60.0008 880.223-60.0008 900.223-168.054 900.223-161.1 880.223-60.0008 880.223ZM-600 842.041-600 862.041-740 862.041-740 842.041-600 842.041ZM-366.605 842.041C-362.984 848.291-360.276 855.025-358.559 862.041L-358.559 862.041-580 862.041-580 842.041ZM-20 842.04-20 862.041-154.778 862.041-147.823 842.04-20 842.04ZM-212.177 842.04-205.223 862.041-339.999 862.041-339.999 842.04-212.177 842.04ZM-600 803.859-600 823.859-740 823.859-740 803.859-600 803.859ZM-432.727 803.859C-413.656 803.834-395.27 810.972-381.212 823.859L-381.212 823.859-580 823.859-580 803.859ZM-20 803.86-20 823.86-141.5 823.86-134.545 803.86-20 803.86ZM-225.455 803.86-218.499 823.86-339.999 823.86-339.999 803.86-225.455 803.86Z" fill="#13213D"/></g></svg>