<svg width="720" height="720" xmlns="http://www.w3.org/2000/svg" xmlns:xlink="http://www.w3.org/1999/xlink" overflow="hidden"><defs><clipPath id="clip0"><rect x="267" y="32" width="720" height="720"/></clipPath></defs><g clip-path="url(#clip0)" transform="translate(-267 -32)"><path d="M627 32C428.156 32 267 193.156 267 392 267 590.844 428.156 752 627 752 825.844 752 987 590.844 987 392 987 193.156 825.844 32 627 32ZM526.312 542.609 456.141 542.609 456.141 318.031 526.312 318.031 526.312 542.609ZM489.328 289.906 488.766 289.906C463.312 289.906 446.859 272.75 446.859 250.953 446.859 228.734 463.875 212 489.75 212 515.625 212 531.516 228.734 532.078 250.953 532.219 272.609 515.766 289.906 489.328 289.906ZM807 542.609 727.406 542.609 727.406 426.453C727.406 396.078 715.031 375.266 687.609 375.266 666.656 375.266 654.984 389.328 649.641 402.828 647.672 407.609 647.953 414.359 647.953 421.25L647.953 542.609 569.062 542.609C569.062 542.609 570.047 336.734 569.062 318.031L647.953 318.031 647.953 353.328C652.594 337.859 677.766 315.922 717.984 315.922 767.906 315.922 807 348.266 807 417.734L807 542.609Z" fill="#FAA21B"/></g></svg>