<svg width="720" height="720" xmlns="http://www.w3.org/2000/svg" xmlns:xlink="http://www.w3.org/1999/xlink" xml:space="preserve" overflow="hidden"><g transform="translate(-280 0)"><path d="M640 0C441.156 0 280 161.156 280 360 280 558.844 441.156 720 640 720 838.844 720 1000 558.844 1000 360 1000 161.156 838.844 0 640 0ZM539.312 510.609 469.141 510.609 469.141 286.031 539.312 286.031 539.312 510.609ZM502.328 257.906 501.766 257.906C476.312 257.906 459.859 240.75 459.859 218.953 459.859 196.734 476.875 180 502.75 180 528.625 180 544.516 196.734 545.078 218.953 545.219 240.609 528.766 257.906 502.328 257.906ZM820 510.609 740.406 510.609 740.406 394.453C740.406 364.078 728.031 343.266 700.609 343.266 679.656 343.266 667.984 357.328 662.641 370.828 660.672 375.609 660.953 382.359 660.953 389.25L660.953 510.609 582.062 510.609C582.062 510.609 583.047 304.734 582.062 286.031L660.953 286.031 660.953 321.328C665.594 305.859 690.766 283.922 730.984 283.922 780.906 283.922 820 316.266 820 385.734L820 510.609Z" fill="#70AD47"/></g></svg>